<svg width="31" height="31" viewBox="0 0 31 31" fill="none" xmlns="http://www.w3.org/2000/svg">
<path fill-rule="evenodd" clip-rule="evenodd" d="M15.5 22.1429C19.1688 22.1429 22.1429 19.1688 22.1429 15.5C22.1429 11.8313 19.1688 8.85718 15.5 8.85718C11.8313 8.85718 8.85718 11.8313 8.85718 15.5C8.85718 19.1688 11.8313 22.1429 15.5 22.1429ZM19.9286 15.5C19.9286 17.9458 17.9458 19.9286 15.5 19.9286C13.0542 19.9286 11.0715 17.9458 11.0715 15.5C11.0715 13.0542 13.0542 11.0715 15.5 11.0715C17.9458 11.0715 19.9286 13.0542 19.9286 15.5Z" fill="#B7B7B7"/>
<path fill-rule="evenodd" clip-rule="evenodd" d="M0 14.3924V16.6067C0 18.3208 1.29825 19.7315 2.96503 19.9093C3.10651 20.3115 3.26676 20.7048 3.44469 21.0881C2.3525 22.3931 2.41951 24.3394 3.64572 25.5657L5.21145 27.1314C6.40976 28.3297 8.29588 28.421 9.59896 27.4052C10.0799 27.644 10.5775 27.8546 11.0895 28.0348C11.2673 29.7017 12.678 31 14.3921 31H16.6064C18.32 31 19.7305 29.7023 19.9088 28.036C20.3741 27.8723 20.8275 27.6837 21.2672 27.4714C22.5661 28.4164 24.3952 28.303 25.5668 27.1314L27.1325 25.5657C28.3041 24.3941 28.4175 22.565 27.4726 21.2661C27.6845 20.8268 27.8731 20.374 28.0366 19.9091C29.7026 19.7305 31 18.3201 31 16.6067V14.3924C31 12.679 29.7026 11.2687 28.0366 11.0901C27.8563 10.5774 27.6455 10.0791 27.4063 9.59763C28.4212 8.29459 28.3298 6.40912 27.1318 5.21111L25.566 3.64537C24.3401 2.41945 22.3943 2.35218 21.0894 3.44355C20.7055 3.26535 20.3115 3.10488 19.9086 2.96323C19.7301 1.29732 18.3197 0 16.6064 0H14.3921C12.6783 0 11.2677 1.29791 11.0896 2.96437C10.6372 3.12358 10.1961 3.30652 9.76778 3.51165C8.46349 2.34992 6.4631 2.39448 5.21223 3.64537L3.64649 5.2111C2.3956 6.46199 2.35104 8.46239 3.5128 9.76668C3.30745 10.1954 3.12435 10.637 2.96503 11.0899C1.29825 11.2677 0 12.6784 0 14.3924ZM17.7135 3.32143C17.7135 2.70998 17.2178 2.21429 16.6064 2.21429H14.3921C13.7806 2.21429 13.2849 2.70998 13.2849 3.32143V3.74512C13.2849 4.27161 12.9122 4.71948 12.4065 4.86636C11.6212 5.0945 10.8719 5.4073 10.1691 5.79421C9.70783 6.04812 9.12756 5.99497 8.75527 5.62268L8.34369 5.21111C7.91133 4.77874 7.21033 4.77874 6.77796 5.2111L5.21223 6.77684C4.77986 7.2092 4.77986 7.91021 5.21223 8.34258L5.62382 8.75417C5.99611 9.12645 6.04926 9.70672 5.79535 10.1679C5.40823 10.8711 5.09529 11.6209 4.86712 12.4068C4.7203 12.9125 4.2724 13.2853 3.74584 13.2853H3.32143C2.70998 13.2853 2.21429 13.781 2.21429 14.3924V16.6067C2.21429 17.2182 2.70998 17.7138 3.32143 17.7138H3.74584C4.2724 17.7138 4.72029 18.0867 4.86712 18.5924C5.08128 19.33 5.37011 20.0359 5.72487 20.7012C5.96974 21.1605 5.91319 21.7324 5.54518 22.1005L5.21145 22.4343C4.77909 22.8666 4.77909 23.5675 5.21145 24L6.7772 25.5657C7.20956 25.998 7.91057 25.998 8.34293 25.5657L8.61232 25.2963C8.98888 24.9197 9.57739 24.8701 10.0404 25.133C10.7802 25.5533 11.5731 25.8908 12.4065 26.1329C12.9122 26.2797 13.2849 26.7276 13.2849 27.2541V27.6786C13.2849 28.29 13.7806 28.7857 14.3921 28.7857H16.6064C17.2178 28.7857 17.7135 28.29 17.7135 27.6786V27.255C17.7135 26.7284 18.0864 26.2805 18.5921 26.1337C19.3785 25.9055 20.1289 25.5924 20.8324 25.205C21.2937 24.9511 21.8739 25.0043 22.2463 25.3766L22.4354 25.5657C22.8677 25.998 23.5687 25.998 24.0011 25.5657L25.5668 24C25.9991 23.5675 25.9991 22.8666 25.5668 22.4343L25.3777 22.2452C25.0054 21.8728 24.9522 21.2926 25.2062 20.8313C25.5934 20.1281 25.9063 19.3783 26.1344 18.5924C26.2812 18.0867 26.7292 17.7138 27.2558 17.7138H27.6786C28.29 17.7138 28.7857 17.2182 28.7857 16.6067V14.3924C28.7857 13.781 28.29 13.2853 27.6786 13.2853H27.2558C26.7292 13.2853 26.2812 12.9125 26.1344 12.4068C25.8923 11.5729 25.5547 10.7794 25.1342 10.0393C24.8712 9.57622 24.9209 8.98771 25.2974 8.61115L25.566 8.34258C25.9984 7.91021 25.9984 7.2092 25.566 6.77684L24.0003 5.2111C23.568 4.77874 22.8669 4.77874 22.4346 5.2111L22.1017 5.544C21.7337 5.91201 21.1616 5.96856 20.7024 5.7237C20.0366 5.3687 19.3303 5.07974 18.5921 4.86553C18.0864 4.71875 17.7135 4.27083 17.7135 3.74421V3.32143Z" fill="#B7B7B7"/>
</svg>
