<svg width="49" height="27" viewBox="0 0 49 27" fill="none" xmlns="http://www.w3.org/2000/svg">
<path d="M8.72839 5.42523C8.72839 5.42523 8.64897 6.19414 8.99537 6.87173C8.99537 6.87173 9.25206 7.23553 8.98551 7.46917L8.45489 7.7776C8.45489 7.7776 8.38358 7.83065 8.14689 7.81268C8.14689 7.81268 7.81977 7.73166 7.71048 7.87616C7.71048 7.87616 7.61555 8.15401 7.4967 8.38301C7.4967 8.38301 7.25508 8.93813 6.85519 9.11597C6.85519 9.11597 6.53647 9.18902 6.4398 9.46542C6.4398 9.46542 6.33703 9.65935 6.13122 9.6679C6.13122 9.6679 5.97773 9.7166 5.87613 10.0585C5.87613 10.0585 5.82076 10.2797 5.82366 10.4493C5.82366 10.4493 6.08542 10.4149 6.25601 10.4767C6.25601 10.4767 6.67547 10.6175 6.86302 10.272C6.86302 10.272 7.22537 9.65152 7.49409 9.74487C7.49409 9.74487 8.03384 9.92546 8.41503 9.53151C8.41503 9.53151 8.9387 8.95944 9.67833 9.07713C9.67833 9.07713 10.5114 9.24584 10.7713 9.05365C10.7713 9.05365 11.2967 8.77899 11.4938 8.71087C11.4938 8.71087 11.735 8.63999 11.7599 8.37591C11.7599 8.37591 11.9066 8.00443 12.0133 7.88065L11.6159 7.87616C11.6159 7.87616 11.256 8.48143 10.6445 8.66391C10.6445 8.66391 10.3101 8.79754 9.6389 8.68898C9.6389 8.68898 8.6752 8.4707 7.82875 9.38484C7.82875 9.38484 7.71309 9.55195 7.548 9.48513C7.548 9.48513 8.01572 8.68753 9.04262 8.49853C9.04262 8.49853 9.37874 8.42708 9.65905 8.47259C9.65905 8.47259 11.0422 8.51317 11.6836 7.15146C11.6836 7.15146 11.6141 5.9905 11.9204 5.71555C11.9204 5.71555 12.0387 5.67931 12.015 5.90382C12.015 5.90382 11.8046 7.12001 12.1998 7.35554C12.1998 7.35554 12.4293 7.53584 12.8538 7.46917C12.8538 7.46917 13.4973 7.31539 14.0204 7.40496C14.0204 7.40496 14.8248 7.59585 15.5161 7.50758C15.5161 7.50758 15.3366 7.23277 15.3718 6.9042C15.3718 6.9042 15.4708 6.66896 15.5843 6.82028C15.5843 6.82028 15.8503 7.6989 16.5772 7.96254C16.5772 7.96254 17.2263 8.19894 17.2158 9.02234C17.2158 9.02234 17.1163 9.13525 16.2555 9.44107C16.2555 9.44107 15.9339 9.54267 15.8303 9.30236C15.8303 9.30236 15.4152 8.41389 15.0538 8.44128L14.3754 8.49636C14.3754 8.49636 14.1439 8.55564 14.3144 8.74116C14.3144 8.74116 14.5467 9.05003 14.6416 9.23439C14.6416 9.23439 14.6693 9.39194 14.8876 9.35846C14.8876 9.35846 15.1904 9.20844 15.3611 9.77168C15.3611 9.77168 15.5174 10.0533 15.7819 10.1433C15.7819 10.1433 16.0293 10.2259 16.2615 10.0956C16.2615 10.0956 17.382 9.68428 17.5771 9.53847C17.5771 9.53847 17.8194 9.40281 18.0116 9.46803C18.0116 9.46803 18.3477 9.54818 18.4862 9.28294L18.8334 8.74565C18.8334 8.74565 18.9097 8.61332 18.8991 8.44708C18.8991 8.44708 18.9305 8.28243 18.7917 8.11502C18.7917 8.11502 18.6605 7.97631 18.6398 7.87587L18.3922 7.29408C18.3922 7.29408 18.2919 7.13871 18.1818 7.07479L17.8513 7.09899C17.8513 7.09899 18.0787 7.6802 18.2453 7.91703C18.2453 7.91703 18.4706 8.2617 18.4592 8.48085C18.4592 8.48085 18.4443 8.63448 18.3837 8.69855C18.3837 8.69855 18.3074 8.82059 18.2767 8.87987C18.2767 8.87987 18.1766 9.09728 18.0953 9.14554C18.0953 9.14554 17.9547 9.22874 17.9205 9.23207C17.9205 9.23207 17.8593 9.24903 17.9047 9.13945C17.9047 9.13945 18.0899 8.74971 18.0777 8.54129C18.0777 8.54129 18.1137 8.32417 17.96 8.19706C17.96 8.19706 17.6 7.62875 17.5484 7.45888C17.5484 7.45888 17.4355 7.23161 17.3753 7.19262C17.3753 7.19262 17.2495 7.02725 17.4526 6.94985C17.4526 6.94985 17.9584 6.83564 18.049 6.7736C18.049 6.7736 18.2922 6.69998 18.4502 6.19341C18.4502 6.19341 18.6678 5.60264 18.6646 5.23797C18.6646 5.23797 19.091 6.06007 18.4109 6.89608C18.4109 6.89608 18.9491 7.05479 19.1717 6.89608C19.1717 6.89608 19.8421 6.7981 19.9715 6.76244C19.9715 6.76244 20.1401 6.72172 20.0438 6.84129C20.0438 6.84129 19.8416 7.12885 19.8245 7.31727C19.8245 7.31727 19.8115 7.46729 19.6886 7.55512C19.6886 7.55512 19.3075 7.82195 19.274 8.07748C19.274 8.07748 19.1926 8.32344 19.3609 8.2646C19.3609 8.2646 19.589 8.15894 19.6696 8.26532C19.6696 8.26532 19.6932 8.27648 19.6052 8.37519C19.6052 8.37519 19.3764 8.57433 19.3593 8.8416C19.3593 8.8416 19.4016 9.15003 19.4825 9.24917C19.4825 9.24917 19.5855 9.39208 19.7484 9.34672C19.7484 9.34672 19.7916 9.31179 19.8696 9.33527C19.8696 9.33527 19.9502 9.33498 20.1606 9.26222C20.1606 9.26222 20.4797 9.17453 20.5863 9.13684C20.5863 9.13684 20.9925 8.99161 21.1928 9.00176C21.1928 9.00176 21.3231 8.98741 21.4892 9.0206C21.4892 9.0206 21.997 9.07829 22.3355 8.7042C22.3355 8.7042 22.593 8.49998 22.6804 8.69826C22.6804 8.69826 23.2983 9.52731 24.2984 9.30889C24.2984 9.30889 23.5027 8.98161 23.2963 8.53593C23.2963 8.53593 23.2687 8.15749 22.8519 7.63194C22.8519 7.63194 22.7245 7.45757 22.8474 7.41221C22.8474 7.41221 22.9186 7.35902 23.0738 7.51483C23.0738 7.51483 23.4698 7.89471 23.6128 8.24242C23.6128 8.24242 24.1046 8.98553 24.8133 8.7358C24.8133 8.7358 24.2569 8.52114 23.9955 8.12082C23.9955 8.12082 23.8338 7.57903 23.2906 7.17596C23.2906 7.17596 23.2693 6.56707 23.016 6.22486C23.016 6.22486 22.8868 5.65308 22.852 5.51944C22.852 5.51944 22.7153 5.01723 22.7162 4.87852C22.7162 4.87852 22.7614 4.22252 22.3385 3.7119C22.3385 3.7119 22.0551 3.16562 21.6138 2.78501C21.6138 2.78501 21.2784 2.37063 21.029 2.11684C21.029 2.11684 20.7008 1.73217 19.9854 1.23025C19.9854 1.23025 19.6615 0.99472 19.4242 0.741511C19.4242 0.741511 18.1622 -0.166825 17.2505 0.561786C17.2505 0.561786 16.6209 0.990082 16.0951 1.1227C16.0951 1.1227 15.0144 1.24851 14.5537 1.99857C14.5537 1.99857 14.5142 2.13713 14.0787 2.18989C14.0787 2.18989 13.1219 2.07437 12.4175 3.01532C12.4175 3.01532 12.0903 3.33477 11.4424 3.41246C11.4424 3.41246 10.3858 3.30433 9.69789 4.1144C9.69789 4.1144 7.9621 5.62858 6.92708 4.64662C6.92708 4.64662 6.39081 4.13889 7.0039 3.21954C7.0039 3.21954 7.39277 2.75023 8.05616 2.2599C8.05616 2.2599 8.59432 1.88074 8.34764 1.29127C8.34764 1.29127 8.21734 0.721654 7.41075 0.70658C7.41075 0.70658 6.39863 0.511057 5.98932 0C5.98932 0 5.53233 1.60955 7.32596 1.58274C7.32596 1.58274 7.79339 1.65188 7.63019 2.02292C7.63019 2.02292 7.40104 2.34034 7.09347 2.45586C7.09347 2.45586 6.55241 2.69254 6.3079 3.48043C6.3079 3.48043 5.76148 4.85968 7.09463 5.39204C7.60772 5.5693 8.20038 5.51712 8.72839 5.42523ZM6.16166 8.67536C6.23398 8.61492 6.33993 8.58086 6.434 8.60289C6.64619 8.64854 6.51777 8.83233 6.51777 8.83233C6.43183 8.99306 6.15137 9.26425 6.15137 9.26425C5.90193 9.45107 5.70437 9.22859 5.70437 9.22859C5.51958 9.0464 5.76003 8.95828 5.76003 8.95828C5.8999 8.90146 6.16166 8.67536 6.16166 8.67536ZM5.62683 9.53746C5.62683 9.53746 5.70437 9.59471 5.66292 9.70776C5.66292 9.70776 5.46493 10.2497 5.47421 10.4316C5.47421 10.4316 5.03606 10.5099 4.97533 10.2936C4.97533 10.2936 4.96359 10.2101 5.03504 10.0891C5.03504 10.0891 5.1094 9.97619 5.12867 9.76965C5.12867 9.76965 5.12215 9.2499 5.45885 9.38759C5.52566 9.42498 5.57842 9.47934 5.62683 9.53746ZM21.0701 8.43766C20.993 8.43577 20.9735 8.40751 20.9827 8.32257C21.0345 8.08647 21.2238 7.98458 21.2238 7.98458C21.5789 7.77238 21.6221 7.98486 21.6221 7.98486C21.6871 8.36388 21.3876 8.41157 21.3876 8.41157C21.3277 8.43215 21.0701 8.43766 21.0701 8.43766ZM22.1414 6.74505C22.1479 6.56721 22.163 6.17196 21.9822 6.03079C21.9156 5.97774 21.6518 5.68888 21.6518 5.68888C21.6116 5.61887 21.5808 5.61452 21.5808 5.61452C21.5264 5.60931 21.4563 5.73569 21.4563 5.73569C21.2684 6.09819 21.081 6.05398 21.081 6.05398C21.0794 5.98789 21.1236 5.91411 21.1236 5.91411C21.2143 5.73802 21.3041 5.56148 21.3931 5.3845C21.4205 5.3216 21.4457 5.23783 21.4457 5.23783C21.627 4.95679 21.7979 5.17072 21.7979 5.17072C21.8741 5.31957 22.2807 5.80454 22.2807 5.80454C22.3708 5.91179 22.3795 6.02702 22.3795 6.02702C22.4737 6.69128 22.1414 6.74505 22.1414 6.74505ZM18.3969 2.73515C18.3414 2.63529 18.3643 2.5334 18.4201 2.43629C18.5459 2.24352 18.6634 2.45383 18.6634 2.45383C19.0978 3.05938 18.7771 3.96598 18.7771 3.96598C18.7324 3.13156 18.3969 2.73515 18.3969 2.73515ZM41.7195 5.42523C41.7195 5.42523 41.799 6.19414 41.4526 6.87173C41.4526 6.87173 41.1959 7.23553 41.4624 7.46917L41.9932 7.7776C41.9932 7.7776 42.0643 7.83065 42.3012 7.81268C42.3012 7.81268 42.6282 7.73166 42.7373 7.87616C42.7373 7.87616 42.8324 8.15401 42.9511 8.38301C42.9511 8.38301 43.1931 8.93813 43.593 9.11597C43.593 9.11597 43.9116 9.18902 44.008 9.46542C44.008 9.46542 44.111 9.65935 44.3166 9.6679C44.3166 9.6679 44.4703 9.7166 44.5718 10.0585C44.5718 10.0585 44.6273 10.2797 44.6246 10.4493C44.6246 10.4493 44.3626 10.4149 44.1919 10.4767C44.1919 10.4767 43.7726 10.6175 43.585 10.272C43.585 10.272 43.2227 9.65152 42.954 9.74487C42.954 9.74487 42.4144 9.92546 42.033 9.53151C42.033 9.53151 41.5095 8.95944 40.7697 9.07713C40.7697 9.07713 39.9369 9.24584 39.6769 9.05365C39.6769 9.05365 39.1515 8.77899 38.9544 8.71087C38.9544 8.71087 38.713 8.63999 38.6884 8.37591C38.6884 8.37591 38.5416 8.00443 38.4349 7.88065L38.8322 7.87616C38.8322 7.87616 39.1919 8.48143 39.8034 8.66391C39.8034 8.66391 40.1381 8.79754 40.809 8.68898C40.809 8.68898 41.7729 8.4707 42.6193 9.38484C42.6193 9.38484 42.7351 9.55195 42.8999 9.48513C42.8999 9.48513 42.4325 8.68753 41.4054 8.49853C41.4054 8.49853 41.0695 8.42708 40.7889 8.47259C40.7889 8.47259 39.4057 8.51317 38.7641 7.15146C38.7641 7.15146 38.8338 5.9905 38.5275 5.71555C38.5275 5.71555 38.4095 5.67931 38.4327 5.90382C38.4327 5.90382 38.643 7.12001 38.2481 7.35554C38.2481 7.35554 38.0185 7.53584 37.594 7.46917C37.594 7.46917 36.9506 7.31539 36.4276 7.40496C36.4276 7.40496 35.6229 7.59585 34.9317 7.50758C34.9317 7.50758 35.1113 7.23277 35.0761 6.9042C35.0761 6.9042 34.9769 6.66896 34.8635 6.82028C34.8635 6.82028 34.5975 7.6989 33.8705 7.96254C33.8705 7.96254 33.2213 8.19894 33.2319 9.02234C33.2319 9.02234 33.3316 9.13525 34.1925 9.44107C34.1925 9.44107 34.5143 9.54267 34.6179 9.30236C34.6179 9.30236 35.0326 8.41389 35.3941 8.44128L36.0728 8.49636C36.0728 8.49636 36.3042 8.55564 36.1336 8.74116C36.1336 8.74116 35.9015 9.05003 35.8063 9.23439C35.8063 9.23439 35.7789 9.39194 35.5605 9.35846C35.5605 9.35846 35.2577 9.20844 35.0867 9.77168C35.0867 9.77168 34.9307 10.0533 34.6662 10.1433C34.6662 10.1433 34.4186 10.2259 34.1866 10.0956C34.1866 10.0956 33.0661 9.68428 32.8711 9.53847C32.8711 9.53847 32.6286 9.40281 32.4366 9.46803C32.4366 9.46803 32.1008 9.54818 31.9623 9.28294L31.6151 8.74565C31.6151 8.74565 31.5385 8.61332 31.5493 8.44708C31.5493 8.44708 31.5177 8.28243 31.6567 8.11502C31.6567 8.11502 31.788 7.97631 31.8086 7.87587L32.0563 7.29408C32.0563 7.29408 32.1566 7.13871 32.2666 7.07479L32.5973 7.09899C32.5973 7.09899 32.3696 7.6802 32.2029 7.91703C32.2029 7.91703 31.9776 8.2617 31.989 8.48085C31.989 8.48085 32.0041 8.63448 32.0645 8.69855C32.0645 8.69855 32.1408 8.82059 32.1716 8.87987C32.1716 8.87987 32.2714 9.09728 32.353 9.14554C32.353 9.14554 32.4934 9.22874 32.5278 9.23207C32.5278 9.23207 32.5891 9.24903 32.5431 9.13945C32.5431 9.13945 32.3585 8.74971 32.3702 8.54129C32.3702 8.54129 32.3346 8.32417 32.4879 8.19706C32.4879 8.19706 32.8482 7.62875 32.9001 7.45888C32.9001 7.45888 33.0126 7.23161 33.0729 7.19262C33.0729 7.19262 33.1987 7.02725 32.9956 6.94985C32.9956 6.94985 32.4899 6.83564 32.3993 6.7736C32.3993 6.7736 32.1561 6.69998 31.998 6.19341C31.998 6.19341 31.7806 5.60264 31.7836 5.23797C31.7836 5.23797 31.3572 6.06007 32.0374 6.89608C32.0374 6.89608 31.4993 7.05479 31.2766 6.89608C31.2766 6.89608 30.6064 6.7981 30.4766 6.76244C30.4766 6.76244 30.3084 6.72172 30.4044 6.84129C30.4044 6.84129 30.6064 7.12885 30.6238 7.31727C30.6238 7.31727 30.6366 7.46729 30.7598 7.55512C30.7598 7.55512 31.1408 7.82195 31.174 8.07748C31.174 8.07748 31.2556 8.32344 31.0872 8.2646C31.0872 8.2646 30.8592 8.15894 30.7786 8.26532C30.7786 8.26532 30.755 8.27648 30.843 8.37519C30.843 8.37519 31.0718 8.57433 31.0888 8.8416C31.0888 8.8416 31.0465 9.15003 30.9655 9.24917C30.9655 9.24917 30.8625 9.39208 30.6996 9.34672C30.6996 9.34672 30.6566 9.31179 30.5782 9.33527C30.5782 9.33527 30.4977 9.33498 30.2873 9.26222C30.2873 9.26222 29.9683 9.17453 29.8616 9.13684C29.8616 9.13684 29.4555 8.99161 29.255 9.00176C29.255 9.00176 29.1247 8.98741 28.9586 9.0206C28.9586 9.0206 28.4506 9.07829 28.1122 8.7042C28.1122 8.7042 27.8546 8.49998 27.7675 8.69826C27.7675 8.69826 27.1495 9.52731 26.1493 9.30889C26.1493 9.30889 26.9454 8.98161 27.1517 8.53593C27.1517 8.53593 27.1789 8.15749 27.5958 7.63194C27.5958 7.63194 27.723 7.45757 27.6001 7.41221C27.6001 7.41221 27.5291 7.35902 27.3737 7.51483C27.3737 7.51483 26.9782 7.89471 26.835 8.24242C26.835 8.24242 26.3429 8.98553 25.6344 8.7358C25.6344 8.7358 26.1906 8.52114 26.452 8.12082C26.452 8.12082 26.6136 7.57903 27.1573 7.17596C27.1573 7.17596 27.1785 6.56707 27.432 6.22486C27.432 6.22486 27.5613 5.65308 27.5958 5.51944C27.5958 5.51944 27.7323 5.01723 27.7314 4.87852C27.7314 4.87852 27.6862 4.22252 28.1093 3.7119C28.1093 3.7119 28.3925 3.16562 28.8343 2.78501C28.8343 2.78501 29.1695 2.37063 29.4188 2.11684C29.4188 2.11684 29.7471 1.73217 30.4625 1.23025C30.4625 1.23025 30.7863 0.99472 31.0234 0.741511C31.0234 0.741511 32.2853 -0.166825 33.1972 0.561786C33.1972 0.561786 33.8268 0.990082 34.353 1.1227C34.353 1.1227 35.4334 1.24851 35.8938 1.99857C35.8938 1.99857 35.9333 2.13713 36.3688 2.18989C36.3688 2.18989 37.3255 2.07437 38.0301 3.01532C38.0301 3.01532 38.3574 3.33477 39.0054 3.41246C39.0054 3.41246 40.0614 3.30433 40.7493 4.1144C40.7493 4.1144 42.4852 5.62858 43.5204 4.64662C43.5204 4.64662 44.0564 4.13889 43.4434 3.21954C43.4434 3.21954 43.0547 2.75023 42.3915 2.2599C42.3915 2.2599 41.8529 1.88074 42.0999 1.29127C42.0999 1.29127 42.2301 0.721654 43.0367 0.70658C43.0367 0.70658 44.0489 0.511057 44.458 0C44.458 0 44.9153 1.60955 43.1214 1.58274C43.1214 1.58274 42.6538 1.65188 42.8172 2.02292C42.8172 2.02292 43.0463 2.34034 43.3539 2.45586C43.3539 2.45586 43.8949 2.69254 44.1396 3.48043C44.1396 3.48043 44.6862 4.85968 43.3524 5.39204C42.8401 5.5693 42.2475 5.51712 41.7195 5.42523ZM44.2864 8.67536C44.2139 8.61492 44.108 8.58086 44.0142 8.60289C43.8017 8.64854 43.9303 8.83233 43.9303 8.83233C44.0164 8.99306 44.2968 9.26425 44.2968 9.26425C44.5466 9.45107 44.7438 9.22859 44.7438 9.22859C44.9283 9.0464 44.6877 8.95828 44.6877 8.95828C44.5482 8.90146 44.2864 8.67536 44.2864 8.67536ZM44.8209 9.53746C44.8209 9.53746 44.7438 9.59471 44.7849 9.70776C44.7849 9.70776 44.9828 10.2497 44.9737 10.4316C44.9737 10.4316 45.4122 10.5099 45.4724 10.2936C45.4724 10.2936 45.4842 10.2101 45.4129 10.0891C45.4129 10.0891 45.3385 9.97619 45.3192 9.76965C45.3192 9.76965 45.3259 9.2499 44.9892 9.38759C44.9223 9.42498 44.8695 9.47934 44.8209 9.53746ZM29.3776 8.43766C29.4549 8.43577 29.4747 8.40751 29.4652 8.32257C29.4133 8.08647 29.2243 7.98458 29.2243 7.98458C28.8692 7.77238 28.8259 7.98486 28.8259 7.98486C28.7611 8.36388 29.0605 8.41157 29.0605 8.41157C29.1204 8.43215 29.3776 8.43766 29.3776 8.43766ZM28.3067 6.74505C28.3 6.56721 28.2848 6.17196 28.4658 6.03079C28.5328 5.97774 28.7963 5.68888 28.7963 5.68888C28.8364 5.61887 28.8673 5.61452 28.8673 5.61452C28.9214 5.60931 28.992 5.73569 28.992 5.73569C29.1795 6.09819 29.3672 6.05398 29.3672 6.05398C29.3687 5.98789 29.3242 5.91411 29.3242 5.91411C29.2335 5.73802 29.1438 5.56148 29.0549 5.3845C29.035 5.33647 29.0174 5.28753 29.0022 5.23783C28.8209 4.95679 28.6502 5.17072 28.6502 5.17072C28.5739 5.31957 28.1675 5.80454 28.1675 5.80454C28.1138 5.86762 28.0793 5.94486 28.0683 6.02702C27.9745 6.69128 28.3067 6.74505 28.3067 6.74505ZM32.051 2.73515C32.1066 2.63529 32.0837 2.5334 32.0279 2.43629C31.9021 2.24352 31.7848 2.45383 31.7848 2.45383C31.3503 3.05938 31.671 3.96598 31.671 3.96598C31.7154 3.13156 32.051 2.73515 32.051 2.73515Z" fill="#4398CD"/>
<path d="M0 15.284V26.3923H2.24149V17.404H3.29752C3.29752 17.404 4.94606 17.3298 4.94606 18.8305C4.94606 20.3312 3.48246 20.2938 3.48246 20.2938H2.94517V22.8507L5.1871 26.3926H7.81731L4.68676 21.8506C4.68676 21.8506 7.26176 21.6283 7.26176 18.8308C7.26176 16.0337 5.31653 15.2844 2.72327 15.2844L0 15.284ZM32.7717 20.4798C32.7717 20.4798 33.7532 19.7162 33.7532 18.2693C33.7532 16.8216 32.7018 15.5166 30.4631 15.5166H26.7138V26.3924H31.3319C31.3319 26.3924 34.6419 26.3549 34.6419 23.3638C34.642 21.6274 33.9679 20.9624 32.7717 20.4798ZM30.9653 24.4995H28.9556V17.413H30.0297C30.0297 17.413 31.4896 17.3034 31.4896 18.577C31.4896 19.8506 30.3283 19.7383 30.3283 19.7383H29.6594V21.6474H30.9649C31.3071 21.6474 32.3973 21.8134 32.3973 23.068C32.3972 24.3223 30.9653 24.4995 30.9653 24.4995ZM46.9065 15.0656H49V26.3924H46.9065V15.0656ZM43.3036 15.0656H45.4246V26.3924H43.3036V15.0656ZM35.2728 19.7571H37.4214V23.5545C37.4214 23.5545 37.4961 24.8333 38.6999 24.8333C39.9036 24.8333 39.8858 23.5545 39.8858 23.5545V19.7751H42.0528V23.6847C42.0528 23.6847 42.3309 26.7413 38.7552 26.7413C35.18 26.7413 35.2728 24.0551 35.2728 23.5735V19.7571ZM21.0268 15.0656V20.2019C21.0268 20.2019 19.9893 19.4055 18.803 19.4055C17.6178 19.4055 15.6171 20.239 15.6171 22.8694C15.6171 25.4999 17.3216 26.5008 18.7849 26.5008C20.2486 26.5008 21.0638 25.5373 21.0638 25.5373V26.3927H23.1753V15.0657L21.0268 15.0656ZM19.3962 24.6475C19.2849 24.6475 17.8955 24.6662 17.8955 22.962C17.8955 21.2574 19.4145 21.2019 19.4145 21.2019C19.4145 21.2019 21.1191 21.2574 21.1191 22.9248C21.1191 24.5921 19.5073 24.6475 19.3962 24.6475ZM11.3931 19.4052C14.987 19.4052 14.8388 22.9066 14.8388 22.9066V23.462H9.96677C9.96677 24.2583 10.6335 24.9441 11.5414 24.9441C12.449 24.9441 12.9122 24.0734 12.9122 24.0734L14.6348 24.9254C13.8384 26.1299 12.764 26.6111 11.5599 26.6111C7.8176 26.6111 7.74354 23.4991 7.74354 23.1103C7.74354 22.721 7.79949 19.4052 11.3931 19.4052ZM10.0036 22.1835H12.6716C12.6716 22.1835 12.5605 20.9243 11.3563 20.9243C10.1521 20.9242 10.0036 22.1835 10.0036 22.1835Z" fill="#4398CD"/>
</svg>
