<svg width="24" height="24" viewBox="0 0 24 24" fill="none" xmlns="http://www.w3.org/2000/svg">
<path d="M21.3369 21.3369H2.6631V2.6631H12V0H2.6631C1.91444 0 1.28342 0.262032 0.770053 0.786096C0.256684 1.31016 0 1.93583 0 2.6631V21.3369C0 22.0856 0.256684 22.7166 0.770053 23.2299C1.28342 23.7433 1.91444 24 2.6631 24H21.3369C22.0856 24 22.7166 23.7433 23.2299 23.2299C23.7433 22.7166 24 22.0856 24 21.3369V12H21.3369V21.3369ZM14.6631 0V2.6631H19.4759L6.35294 15.7861L8.2139 17.6471L21.3369 4.55615V9.3369H24V0H14.6631Z" fill="white"/>
</svg>
