<svg width="21" height="16" viewBox="0 0 21 16" fill="none" xmlns="http://www.w3.org/2000/svg">
<path d="M13.1719 8C13.1719 9.6569 11.8288 11 10.1719 11C8.51497 11 7.17188 9.6569 7.17188 8C7.17188 6.3431 8.51497 5 10.1719 5C11.8288 5 13.1719 6.3431 13.1719 8Z" stroke="#9498BB" stroke-width="2"/>
<path d="M5.12132 3.05025C7.85499 0.316582 12.2872 0.316582 15.0208 3.05025L17.1422 5.17157C18.4755 6.5049 19.1422 7.1716 19.1422 8C19.1422 8.8284 18.4755 9.4951 17.1422 10.8284L15.0208 12.9497C12.2872 15.6834 7.85499 15.6834 5.12132 12.9497L3 10.8284C1.66666 9.4951 1 8.8284 1 8C1 7.1716 1.66666 6.5049 3 5.17157L5.12132 3.05025Z" stroke="#9498BB" stroke-width="2" stroke-linejoin="round"/>
</svg>
