<svg width="20" height="24" viewBox="0 0 20 24" fill="none" xmlns="http://www.w3.org/2000/svg">
<path d="M19.4912 18.6826L12.999 8.00021V1.00049H6.99901V8.00025L0.508313 18.6826C0.184594 19.2122 0 19.8347 0 20.5005C0 22.4333 1.56591 24 3.49951 24H16.5C18.4322 24 19.9995 22.4333 19.9995 20.5005C19.9995 19.8348 19.8135 19.2122 19.4912 18.6826Z" fill="#E6E9ED"/>
<path d="M13.9995 1.5C13.9995 2.32838 13.3271 3.00001 12.4995 3.00001H7.5C6.67088 3.00001 6 2.32838 6 1.5C6 0.671626 6.67088 0 7.5 0H12.4995C13.3271 0 13.9995 0.671626 13.9995 1.5Z" fill="#CCD1D9"/>
<path d="M17.4317 15.2937C17.0113 15.7698 16.5191 16.2056 15.961 16.5836C14.9839 17.2457 14.0303 17.5914 13.0913 17.6902C11.0112 17.9092 8.99416 16.9175 6.90672 15.4578C5.85057 14.7203 4.72412 14.0662 3.5566 13.6656L0.508313 18.6826C0.184594 19.2122 0 19.8347 0 20.5005C0 22.4333 1.56591 24 3.49951 24H16.5C18.4322 24 19.9995 22.4333 19.9995 20.5005C19.9995 19.8347 19.8135 19.2122 19.4912 18.6826L17.4317 15.2937Z" fill="#4AAECF"/>
</svg>
