<svg width="53" height="53" viewBox="0 0 53 53" fill="none" xmlns="http://www.w3.org/2000/svg">
<path d="M23.375 17.125L14 26.5M14 26.5L23.375 35.875M14 26.5H39M11.5 51.5H41.5C45.0003 51.5 46.7506 51.5 48.0875 50.8187C49.2634 50.2197 50.2197 49.2634 50.8187 48.0875C51.5 46.7506 51.5 45.0003 51.5 41.5V11.5C51.5 7.99969 51.5 6.2495 50.8187 4.91256C50.2197 3.73653 49.2634 2.78041 48.0875 2.18122C46.7506 1.5 45.0003 1.5 41.5 1.5H11.5C7.99969 1.5 6.2495 1.5 4.91256 2.18122C3.73653 2.78041 2.78041 3.73653 2.18122 4.91256C1.5 6.2495 1.5 7.99966 1.5 11.5V41.5C1.5 45.0003 1.5 46.7506 2.18122 48.0875C2.78041 49.2634 3.73653 50.2197 4.91256 50.8187C6.2495 51.5 7.99966 51.5 11.5 51.5Z" stroke="white" stroke-width="3" stroke-linecap="round" stroke-linejoin="round"/>
</svg>
