<svg width="35" height="33" viewBox="0 0 35 33" fill="none" xmlns="http://www.w3.org/2000/svg">
<path d="M33.536 8.59975H10.9187C10.7545 8.59975 10.6108 8.54489 10.4877 8.43516C10.3645 8.32544 10.2893 8.18828 10.2619 8.02369L8.9484 1.27556C8.89367 0.891521 8.72948 0.582918 8.45582 0.349751C8.18217 0.116584 7.85379 0 7.47068 0H1.47772C1.06724 0 0.718335 0.144015 0.431001 0.432045C0.143667 0.720075 0 1.06983 0 1.4813V1.68703C0 2.0985 0.143667 2.45511 0.431001 2.75686C0.718335 3.0586 1.06724 3.20948 1.47772 3.20948H5.66458C5.77404 3.20948 5.86982 3.24377 5.95192 3.31234C6.03401 3.38092 6.08874 3.47007 6.11611 3.5798L10.303 25.9638C10.3851 26.485 10.6587 26.8691 11.1239 27.116C11.3428 27.2531 11.5891 27.3217 11.8628 27.3217H12.5606C11.9586 28.0075 11.6712 28.8098 11.6986 29.7288C11.726 30.6478 12.068 31.4227 12.7248 32.0536C13.3815 32.6845 14.1683 33 15.085 33C16.0018 33 16.7953 32.6845 17.4658 32.0536C18.1362 31.4227 18.4851 30.6478 18.5125 29.7288C18.5399 28.8098 18.2389 28.0075 17.6095 27.3217H25.2443C24.6149 28.0075 24.3208 28.8098 24.3618 29.7288C24.4029 30.6478 24.7518 31.4227 25.4085 32.0536C26.0653 32.6845 26.852 33 27.7688 33C28.6855 33 29.4722 32.6845 30.129 32.0536C30.7858 31.4227 31.1278 30.6478 31.1552 29.7288C31.1826 28.8098 30.8952 28.0075 30.2932 27.3217H30.991C31.4015 27.3217 31.7504 27.1777 32.0377 26.8897C32.3251 26.6016 32.4687 26.2519 32.4687 25.8404V25.5112C32.4687 25.0998 32.3182 24.75 32.0172 24.462C31.7162 24.1739 31.3604 24.0299 30.95 24.0299H13.751C13.5868 24.0299 13.4431 23.9751 13.32 23.8653C13.1968 23.7556 13.1216 23.6322 13.0942 23.495L12.6837 21.2731C12.6564 21.0536 12.7111 20.8616 12.8479 20.697C12.9848 20.5324 13.1489 20.4638 13.3405 20.4913H32.2224C32.5782 20.4913 32.886 20.3815 33.146 20.1621C33.406 19.9426 33.5633 19.6546 33.6181 19.298L34.9726 10.2868C35.0547 9.84788 34.9521 9.45698 34.6648 9.11409C34.3774 8.7712 34.0012 8.59975 33.536 8.59975Z" fill="#B7B7B7"/>
</svg>
