<svg width="786" height="800" viewBox="0 0 786 800" fill="none" xmlns="http://www.w3.org/2000/svg">
<path fill-rule="evenodd" clip-rule="evenodd" d="M392.79 0C411.2 0 426.123 14.9238 426.123 33.3333V66.6667H459.456C477.866 66.6667 492.79 81.5907 492.79 100C492.79 118.409 477.866 133.333 459.456 133.333H426.123V204.475C465.7 215.435 496.67 245.587 513.106 284.519C552.413 256.891 593.276 244.364 632.433 246.255C686.7 248.876 732.126 279.047 758.87 323.46C810.346 408.94 791.243 538.203 668.006 642.567L698.483 703.52C720.646 747.847 688.416 800 638.856 800H146.725C97.166 800 64.933 747.847 87.096 703.52L117.572 642.567C-5.66342 538.203 -24.764 408.94 26.712 323.459C53.457 279.047 98.8824 248.876 153.15 246.255C192.306 244.364 233.167 256.892 272.476 284.52C288.911 245.588 319.88 215.435 359.456 204.476V133.333H326.123C307.713 133.333 292.79 118.409 292.79 100C292.79 81.5907 307.713 66.6667 326.123 66.6667H359.456V33.3333C359.456 14.9238 374.38 0 392.79 0ZM259.885 360.327C220.819 323.051 184.442 311.489 156.365 312.844C126.236 314.299 100.13 330.772 83.8227 357.85C52.859 409.27 55.3854 508.827 170.794 600H340.913C332.363 580.733 322.141 557.05 311.902 531.81C299.232 500.577 286.358 466.52 276.599 435.277C268.474 409.263 261.625 382.533 259.885 360.327ZM444.67 600H614.786C730.196 508.827 732.723 409.27 701.76 357.85C685.453 330.773 659.346 314.299 629.216 312.844C601.14 311.488 564.763 323.05 525.696 360.323C523.956 382.53 517.11 409.263 508.983 435.277C499.223 466.52 486.35 500.577 473.68 531.81C463.44 557.05 453.22 580.733 444.67 600ZM605.523 666.667H392.79H180.058L146.725 800H392.791H638.856L605.523 666.667ZM392.79 552.29C398.863 538.26 405.386 522.813 411.903 506.75C424.233 476.357 436.356 444.183 445.35 415.4C454.67 385.56 459.456 362.89 459.456 350C459.456 348.997 459.443 348.003 459.42 347.017C458.09 295.974 424.8 266.667 392.79 266.667C360.783 266.667 327.493 295.975 326.163 347.017C326.136 348.003 326.123 349 326.123 350C326.123 362.89 330.913 385.56 340.233 415.4C349.223 444.183 361.35 476.357 373.68 506.75C380.196 522.813 386.72 538.26 392.79 552.29Z" fill="#B7B7B7"/>
</svg>
