<svg width="2" height="12" viewBox="0 0 2 12" fill="none" xmlns="http://www.w3.org/2000/svg">
<path d="M0.5 1C0.5 1.27614 0.723858 1.5 1 1.5C1.27614 1.5 1.5 1.27614 1.5 1C1.5 0.723858 1.27614 0.5 1 0.5C0.723858 0.5 0.5 0.723858 0.5 1Z" stroke="white" stroke-linecap="round" stroke-linejoin="round"/>
<path d="M0.5 6C0.5 6.27614 0.723858 6.5 1 6.5C1.27614 6.5 1.5 6.27614 1.5 6C1.5 5.72386 1.27614 5.5 1 5.5C0.723858 5.5 0.5 5.72386 0.5 6Z" stroke="white" stroke-linecap="round" stroke-linejoin="round"/>
<path d="M0.5 11C0.5 11.2761 0.723858 11.5 1 11.5C1.27614 11.5 1.5 11.2761 1.5 11C1.5 10.7239 1.27614 10.5 1 10.5C0.723858 10.5 0.5 10.7239 0.5 11Z" stroke="white" stroke-linecap="round" stroke-linejoin="round"/>
</svg>
