<svg width="24" height="24" viewBox="0 0 24 24" fill="none" xmlns="http://www.w3.org/2000/svg">
  <path
    d="M3.57001 22H3.44001C2.41001 22 2.01001 21.6 2.01001 20.57V3.43999C2.01001 2.40999 2.41001 2.00999 3.44001 2.00999H3.57001C4.60001 2.00999 5.00001 2.40999 5.00001 3.43999V20.57C5.00001 21.6 4.60001 22 3.57001 22ZM22 7.42999V16.56C22 17.59 21.6 17.99 20.57 17.99H16.5C14.5 17.99 13.33 17.52 11.9 16.16L10.63 14.99C9.90001 14.26 9.20001 13.99 8.16001 13.99H3.59001L3.56001 1.98999H8.13001C10.13 1.98999 11.3 2.41999 12.8 3.75999L14.27 5.05999C15.04 5.72999 15.74 5.98999 16.77 5.98999H20.57C21.6 5.98999 22 6.38999 22 7.41999V7.42999Z"
    fill="#C6C4C3"
  />
</svg>