<svg width="36" height="34" viewBox="0 0 36 34" fill="none" xmlns="http://www.w3.org/2000/svg">
<path fill-rule="evenodd" clip-rule="evenodd" d="M10.1826 21.9793L12.7278 24.3831L2.54521 34L0 31.5962L10.1826 21.9793ZM23.4 20.4C18.4374 20.4 14.4 16.5869 14.4 11.9C14.4 7.2131 18.4374 3.4 23.4 3.4C28.3626 3.4 32.4 7.2131 32.4 11.9C32.4 16.5869 28.3626 20.4 23.4 20.4ZM23.4 0C16.4412 0 10.8 5.3278 10.8 11.9C10.8 18.4722 16.4412 23.8 23.4 23.8C30.3588 23.8 36 18.4722 36 11.9C36 5.3278 30.3588 0 23.4 0Z" fill="#B7B7B7"/>
</svg>
