<svg width="36" height="36" viewBox="0 0 36 36" fill="none" xmlns="http://www.w3.org/2000/svg">
<path d="M26 4.14051C23.6466 2.77915 20.9142 2 18 2C9.16344 2 2 9.16344 2 18C2 20.5595 2.60099 22.9786 3.66954 25.124C3.9535 25.6941 4.04802 26.3458 3.88339 26.961L2.93042 30.5227C2.51672 32.0688 3.93122 33.4832 5.47736 33.0696L9.03902 32.1166C9.65429 31.952 10.3059 32.0466 10.876 32.3304C13.0214 33.399 15.4405 34 18 34C26.8365 34 34 26.8365 34 18C34 15.0858 33.2208 12.3534 31.8595 10" stroke="white" stroke-width="4" stroke-linecap="round"/>
</svg>
