<svg width="27" height="19" viewBox="0 0 27 19" fill="none" xmlns="http://www.w3.org/2000/svg">
<path d="M26 4.47594H23.5M23.5 4.47594H22.25C19.75 2.01938 16 -0.441824 13.5 2.01719M23.5 4.47594V14.3109M13.5 2.01719L9.74945 5.70732C9.65025 5.80492 9.60065 5.85372 9.56074 5.89692C8.69374 6.83504 8.6941 8.26765 9.56159 9.20541C9.60151 9.24857 9.65122 9.29737 9.75039 9.39486C9.84959 9.49235 9.8992 9.54116 9.94311 9.58038C10.8968 10.4327 12.353 10.4326 13.3064 9.57988C13.3503 9.54067 13.3999 9.49186 13.499 9.39437L14.7495 8.1645M13.5 2.01719C11 -0.441824 7.25 2.01946 4.75 4.47601H3.5M23.5 14.3109V17.999H26M23.5 14.3109H19.9645M3.5 4.47601H1M3.5 4.47601V14.3109M3.5 14.3109H6L6.47746 15.2501C7.11954 16.5131 8.88856 16.6699 9.75 15.5403C10.4316 16.2106 10.7724 16.5458 11.14 16.725C11.8394 17.0658 12.6606 17.0658 13.36 16.725C13.7276 16.5458 14.0685 16.2106 14.75 15.5403L15.375 16.155C15.4745 16.2528 15.5244 16.3019 15.5684 16.3413C16.522 17.1938 17.978 17.1938 18.9316 16.3413C18.9756 16.3019 19.0255 16.2528 19.125 16.155C19.2245 16.0571 19.2744 16.0082 19.3144 15.9648C20.1811 15.027 20.1811 13.5949 19.3144 12.6571C19.2744 12.6137 19.2245 12.5648 19.125 12.4668L17.25 10.6228M3.5 14.3109V17.999H1" stroke="white" stroke-width="2" stroke-linecap="round" stroke-linejoin="round"/>
</svg>
