<svg width="32" height="32" viewBox="0 0 32 32" fill="none" xmlns="http://www.w3.org/2000/svg">
<path d="M10.1818 14.5455V11.6364C10.1818 11.2506 10.3351 10.8806 10.6078 10.6078C10.8806 10.3351 11.2506 10.1818 11.6364 10.1818C12.0221 10.1818 12.3921 10.3351 12.6649 10.6078C12.9377 10.8806 13.0909 11.2506 13.0909 11.6364V14.5455C13.0909 14.9312 12.9377 15.3012 12.6649 15.574C12.3921 15.8468 12.0221 16 11.6364 16C11.2506 16 10.8806 15.8468 10.6078 15.574C10.3351 15.3012 10.1818 14.9312 10.1818 14.5455ZM20.3636 16C20.7494 16 21.1194 15.8468 21.3922 15.574C21.6649 15.3012 21.8182 14.9312 21.8182 14.5455V11.6364C21.8182 11.2506 21.6649 10.8806 21.3922 10.6078C21.1194 10.3351 20.7494 10.1818 20.3636 10.1818C19.9779 10.1818 19.6079 10.3351 19.3351 10.6078C19.0623 10.8806 18.9091 11.2506 18.9091 11.6364V14.5455C18.9091 14.9312 19.0623 15.3012 19.3351 15.574C19.6079 15.8468 19.9779 16 20.3636 16ZM20.6909 19.4444C20.1505 20.1809 19.4442 20.7799 18.6292 21.1927C17.8143 21.6055 16.9136 21.8207 16 21.8207C15.0864 21.8207 14.1857 21.6055 13.3708 21.1927C12.5558 20.7799 11.8495 20.1809 11.3091 19.4444C11.0653 19.1454 10.7127 18.9555 10.3289 18.9165C9.9451 18.8775 9.56152 18.9926 9.26255 19.2364C8.96358 19.4802 8.7737 19.8328 8.7347 20.2166C8.69569 20.6004 8.81074 20.9839 9.05455 21.2829C9.86877 22.353 10.9193 23.2206 12.1241 23.8178C13.3288 24.415 14.6553 24.7257 16 24.7257C17.3447 24.7257 18.6712 24.415 19.876 23.8178C21.0807 23.2206 22.1312 22.353 22.9455 21.2829C23.1893 20.9839 23.3043 20.6004 23.2653 20.2166C23.2263 19.8328 23.0364 19.4802 22.7375 19.2364C22.4385 18.9926 22.0549 18.8775 21.6711 18.9165C21.2873 18.9555 20.9347 19.1454 20.6909 19.4444ZM32 16C32 19.1645 31.0616 22.2579 29.3035 24.8891C27.5454 27.5203 25.0466 29.5711 22.1229 30.7821C19.1993 31.9931 15.9823 32.3099 12.8786 31.6926C9.77486 31.0752 6.92394 29.5513 4.6863 27.3137C2.44866 25.0761 0.924806 22.2251 0.307443 19.1214C-0.309921 16.0177 0.0069326 12.8007 1.21793 9.87706C2.42894 6.95345 4.4797 4.45459 7.11088 2.69649C9.74207 0.938383 12.8355 0 16 0C20.2419 0.00500432 24.3087 1.69232 27.3082 4.69182C30.3077 7.69132 31.995 11.7581 32 16ZM29.0909 16C29.0909 13.4109 28.3231 10.8799 26.8847 8.72708C25.4462 6.57429 23.4017 4.8964 21.0097 3.90558C18.6176 2.91476 15.9855 2.65551 13.4461 3.16063C10.9067 3.66574 8.57413 4.91253 6.74333 6.74333C4.91254 8.57412 3.66575 10.9067 3.16064 13.4461C2.65552 15.9855 2.91476 18.6176 3.90558 21.0097C4.8964 23.4017 6.5743 25.4462 8.72709 26.8847C10.8799 28.3231 13.4109 29.0909 16 29.0909C19.4707 29.0871 22.7982 27.7066 25.2524 25.2524C27.7066 22.7982 29.0871 19.4707 29.0909 16Z" fill="white"/>
</svg>
