<svg width="20" height="28" viewBox="0 0 20 28" fill="none" xmlns="http://www.w3.org/2000/svg">
<path d="M1.5 26.5V16.5M1.5 16.5L4.61027 15.8824C6.68809 15.4698 8.84191 15.666 10.8093 16.4475C12.9413 17.2943 15.2877 17.4524 17.5155 16.8994L17.6415 16.8681C18.3793 16.685 18.7291 15.8461 18.3379 15.1986L16.3733 11.9472C15.9434 11.2358 15.7284 10.8801 15.6774 10.4931C15.6562 10.3317 15.6562 10.1683 15.6774 10.0069C15.7284 9.61994 15.9434 9.26421 16.3733 8.55276L17.9828 5.88915C18.404 5.192 17.7661 4.33715 16.9717 4.53433C15.0975 4.99959 13.1234 4.86654 11.3296 4.15411L10.8093 3.94746C8.84191 3.16605 6.68809 2.9697 4.61027 3.38234L1.5 4M1.5 16.5V12.75M1.5 4V1.5M1.5 4V7.75" stroke="white" stroke-width="3" stroke-linecap="round"/>
</svg>
