<svg width="36" height="36" viewBox="0 0 36 36" fill="none" xmlns="http://www.w3.org/2000/svg">
<path d="M34.356 20.9253C32.4055 19.4627 32.4055 16.5373 34.356 15.0746L35.4288 14.2701C34.8289 12.4238 34.8379 12.4515 34.238 10.6052L32.8972 10.585C30.4596 10.5482 28.7399 8.18134 29.4582 5.85161L29.8534 4.57016C28.2828 3.42906 28.3063 3.44622 26.7358 2.30512L25.6391 3.07687C23.6454 4.47995 20.863 3.57588 20.0748 1.26893L19.6412 0C17.6999 0 17.729 0 15.7877 0L15.3541 1.26893C14.5658 3.57588 11.7834 4.47995 9.7898 3.07687L8.69321 2.30512C7.12264 3.44629 7.1462 3.42913 5.57563 4.57023L5.97079 5.85168C6.6891 8.18141 4.96947 10.5482 2.53181 10.585L1.19102 10.6052C0.591116 12.4515 0.600116 12.4238 0.000210955 14.2701L1.07304 15.0746C3.0235 16.5372 3.0235 19.4627 1.07304 20.9253L0 21.7298C0.599905 23.5761 0.590905 23.5485 1.19081 25.3947L2.5316 25.415C4.96919 25.4517 6.68889 27.8186 5.97057 30.1483L5.57549 31.4298C7.14606 32.5709 7.1225 32.5537 8.69307 33.6948L9.78966 32.9231C11.7834 31.52 14.5658 32.4241 15.354 34.731L15.7875 36C17.7288 36 17.6997 36 19.6411 36L20.0746 34.7311C20.8629 32.4241 23.6453 31.52 25.639 32.9231L26.7356 33.6949C28.3061 32.5538 28.2826 32.5709 29.8531 31.4298L29.458 30.1484C28.7397 27.8187 30.4593 25.4519 32.897 25.4151L34.2378 25.3949C34.8377 23.5486 34.8287 23.5762 35.4286 21.73L34.356 20.9253ZM17.7913 26.8353C12.8506 26.8774 8.83707 22.8638 8.87904 17.9231C8.91983 13.1258 12.8403 9.20543 17.6376 9.16458C22.5783 9.12254 26.5919 13.1361 26.5499 18.0768C26.509 22.8741 22.5885 26.7946 17.7913 26.8353Z" fill="#C7C5CB"/>
<path d="M22.5168 3.59683C21.4263 3.27979 20.4839 2.46297 20.0758 1.26893L19.6423 0C18.5908 0 18.1172 0 17.5957 0L18.0293 1.26893C18.6829 3.18199 20.7075 4.12867 22.5168 3.59683Z" fill="#AEADB3"/>
<path d="M7.74452 3.07694C8.70633 3.75384 9.85143 3.89235 10.8679 3.5969C10.4953 3.48735 10.1316 3.31663 9.79111 3.07694L8.69451 2.30519C8.25879 2.62181 7.94597 2.84906 7.6875 3.03679L7.74452 3.07694Z" fill="#AEADB3"/>
<path d="M34.3571 15.0746L35.4299 14.2701C34.83 12.4238 34.839 12.4515 34.2391 10.6052L32.8983 10.585C30.4607 10.5482 28.741 8.18134 29.4593 5.85168L29.8545 4.57023C28.2839 3.42913 28.3075 3.44629 26.7369 2.30519L25.6973 3.03679C26.3702 3.52574 26.6731 3.74575 27.8078 4.57016L27.4127 5.85161C26.6944 8.18134 28.414 10.5481 30.8517 10.5849L32.1924 10.6051C32.7923 12.4514 32.7833 12.4238 33.3832 14.27L32.3104 15.0745C30.36 16.5371 30.36 19.4627 32.3104 20.9252L33.3832 21.7298C32.7833 23.576 32.7923 23.5484 32.1924 25.3946L30.8517 25.4149C28.4141 25.4517 26.6944 27.8185 27.4127 30.1482L27.8078 31.4296C26.6731 32.2541 26.3702 32.4741 25.6973 32.963L26.7369 33.6946C28.3075 32.5535 28.2839 32.5707 29.8545 31.4296L29.4593 30.1481C28.741 27.8184 30.4606 25.4516 32.8983 25.4148L34.2391 25.3946C34.839 23.5483 34.83 23.5759 35.4299 21.7297L34.3571 20.9252C32.4066 19.4628 32.4066 16.5372 34.3571 15.0746Z" fill="#AEADB3"/>
<path d="M7.74452 32.9231L7.6875 32.9631C7.9459 33.1509 8.25872 33.3782 8.69451 33.6947L9.79111 32.923C10.1316 32.6834 10.4953 32.5126 10.8679 32.403C9.85136 32.1076 8.70633 32.2462 7.74452 32.9231Z" fill="#AEADB3"/>
<path d="M18.0293 34.731L17.5957 35.9999C18.1172 35.9999 18.5908 35.9999 19.6423 35.9999L20.0758 34.731C20.4838 33.537 21.4263 32.7202 22.5168 32.4031C20.7076 31.8713 18.6829 32.818 18.0293 34.731Z" fill="#AEADB3"/>
<path d="M17.7154 6.349C11.2807 6.349 6.06445 11.5653 6.06445 18C6.06445 24.4347 11.2807 29.6509 17.7154 29.6509C24.1501 29.6509 29.3664 24.4347 29.3664 18C29.3664 11.5653 24.1501 6.349 17.7154 6.349ZM17.7923 26.8353C12.8516 26.8774 8.83806 22.8638 8.88004 17.9231C8.92082 13.1258 12.8413 9.20544 17.6386 9.16459C22.5793 9.12254 26.5928 13.1361 26.5509 18.0768C26.51 22.8741 22.5895 26.7946 17.7923 26.8353Z" fill="#D8D8DA"/>
</svg>
