<svg width="24" height="24" viewBox="0 0 24 24" fill="none" xmlns="http://www.w3.org/2000/svg">
<path fill-rule="evenodd" clip-rule="evenodd" d="M10.8237 0.139055C11.1507 -0.0472803 11.5533 -0.046285 11.8795 0.141666C12.7672 0.653342 13.5883 1.08556 14.363 1.49335C14.55 1.59171 14.7341 1.68867 14.9159 1.78498C15.8375 2.2732 16.7072 2.75002 17.4754 3.28709C19.0713 4.40284 20.225 5.77876 20.8058 8.08053C21.3772 10.3449 21.0705 12.3652 20.6712 14.2463C20.5962 14.5993 20.5189 14.945 20.4424 15.2862C20.1788 16.4643 19.9269 17.5895 19.8276 18.778H20.2168H20.6706H20.7942H20.8264H20.8346H20.8367C21.2904 18.778 21.694 19.0656 21.8375 19.4921L22.6513 21.9112H22.9458C23.528 21.9112 24 22.3788 24 22.9556C24 23.5324 23.528 24 22.9458 24H21.8916H5.02401H3.96979C3.38755 24 2.91557 23.5324 2.91557 22.9556C2.91557 22.3788 3.38755 21.9112 3.96979 21.9112H4.26417L5.0781 19.4921C5.2216 19.0656 5.62446 18.778 6.07823 18.778H7.47292L8.99766 15.0016L3.48496 16.4388C2.51984 16.6905 1.50884 16.2372 1.06253 15.3529L0.222831 13.6892C-0.200057 12.8513 -0.0102712 11.8326 0.700737 11.2032C1.55277 10.449 3.1585 9.038 4.34858 8.0542C4.85851 7.63266 5.2354 7.14484 5.58724 6.60515C5.72836 6.38868 5.85852 6.17507 5.99544 5.95033C6.03285 5.88895 6.07076 5.82674 6.10952 5.76342C6.2846 5.47748 6.47408 5.17443 6.68441 4.88322C7.1105 4.29324 7.6519 3.70871 8.44806 3.29991C8.98363 3.02492 9.59239 2.85081 10.2951 2.78002V1.04441C10.2951 0.670659 10.4967 0.325398 10.8237 0.139055ZM11.3287 14.394C11.368 14.5864 11.353 14.7922 11.274 14.9882L9.74379 18.778H12.0389H17.7139C17.8196 17.3369 18.1217 15.9947 18.3992 14.7609C18.4718 14.4386 18.5426 14.1237 18.6079 13.8163C18.9913 12.0107 19.2117 10.3757 18.7603 8.58714C18.3185 6.83602 17.5018 5.86206 16.2597 4.99373C15.6089 4.53875 14.8428 4.115 13.9216 3.62694C13.7486 3.53529 13.5705 3.44151 13.3874 3.34519C13.0734 3.17995 12.7444 3.00677 12.4036 2.82432V3.79397C12.4036 4.07789 12.2869 4.34958 12.0803 4.54646C11.8739 4.74335 11.5954 4.84847 11.309 4.83761C10.3883 4.8027 9.81334 4.95159 9.41827 5.15444C9.02328 5.35725 8.7151 5.66119 8.39913 6.09869C8.23842 6.3212 8.08373 6.56666 7.91225 6.84674L7.809 7.01594C7.67012 7.24393 7.51868 7.49256 7.35841 7.7384C6.94902 8.36637 6.43808 9.04738 5.69943 9.658C4.54174 10.615 2.96336 12.0016 2.10974 12.7572L2.94838 14.4188L12.1353 12.0237C12.6983 11.8769 13.2749 12.2101 13.4231 12.7679C13.5712 13.3257 13.2349 13.8969 12.6719 14.0438L11.3287 14.394ZM7.13246 20.8668H9.24091H9.30181H12.0389H18.7289H20.0775L20.4289 21.9112H6.48666L6.83807 20.8668H7.13246ZM9.76802 10.4227C10.6413 10.4227 11.3493 9.72129 11.3493 8.8561C11.3493 7.99088 10.6413 7.28949 9.76802 7.28949C8.89467 7.28949 8.18669 7.99088 8.18669 8.8561C8.18669 9.72129 8.89467 10.4227 9.76802 10.4227Z" fill="white"/>
</svg>
