<svg width="24" height="35" viewBox="0 0 24 35" fill="none" xmlns="http://www.w3.org/2000/svg">
<path d="M12 0C9.64063 0 8.07813 1.32512 7.45833 2.69231C6.98958 3.72821 7.04687 4.44862 7.04167 5.04808C6.04687 5.73167 5 6.60457 4.16667 7.44591C2.30208 9.32843 1.28125 12.0102 1.33333 14.8498C1.35937 16.1591 1.625 17.4737 2.125 18.8041C2.375 19.4719 2.83333 20.6288 3.25 21.9171C3.66667 23.2054 4 24.6252 4 25.5769H2.66667C2.625 25.5769 2.58333 25.5769 2.54167 25.5769C1.82292 25.6242 1.27083 26.2395 1.29687 26.9651C1.31771 27.6908 1.90625 28.264 2.625 28.2692L0.25 31.5084L0 31.845V35H24V31.845L23.75 31.5084L21.3333 28.2692C21.8125 28.2745 22.2604 28.0221 22.5052 27.6014C22.7448 27.1807 22.7448 26.6654 22.5052 26.2447C22.2604 25.8241 21.8125 25.5717 21.3333 25.5769H20C20 22.5323 18.125 19.7401 16.375 17.5841C15.375 16.3484 15.0469 16.1328 14.375 15.4808C14.6146 15.3388 14.9115 15.1705 15.0833 15.0601C15.2969 14.9234 15.4115 14.8392 15.4583 14.8077C15.8333 14.8077 15.8594 14.8708 16.25 15.1863C16.6406 15.5018 17.4375 16.1538 18.5417 16.1538C19.5104 16.1538 20.2188 15.5228 20.5833 15.0601C20.9167 14.6342 21.099 14.3134 21.125 14.2608C21.2448 14.203 21.5052 14.1188 21.8333 13.8822C22.1615 13.6456 22.5885 13.1197 22.6667 12.5361C22.7448 11.9524 22.5625 11.4423 22.3333 10.9375C21.9948 10.1908 21.3646 9.33368 20.375 8.28726C19.3854 7.24084 18.0885 6.13131 16.5 5.46875C16.3802 5.41617 16.4792 5.49504 16.4167 5.42668C16.3542 5.35832 16.1667 5.07437 15.7917 4.79567C15.3021 4.43284 14.2396 4.39078 13.3333 4.29087V0H12ZM10.6667 2.98678V6.73077H12C13.8177 6.73077 14.2188 6.95162 14.2083 6.94111C14.2031 6.93585 14.2135 6.96214 14.4167 7.19351C14.6198 7.42488 15.0156 7.78771 15.5 7.99279C16.5677 8.43975 17.6354 9.31265 18.4583 10.1803C19.2292 10.9901 19.7448 11.7946 19.8333 11.9471C19.6198 12.0523 19.3958 12.1259 19.125 12.4519C18.7604 12.8989 18.6302 13.2091 18.5 13.3774C18.4583 13.43 18.4635 13.4458 18.4583 13.4615C18.3438 13.4458 18.2656 13.3721 17.9167 13.0829C17.4792 12.7254 16.6094 12.1154 15.4583 12.1154C14.5833 12.1154 14.0885 12.5203 13.6667 12.7885C13.2448 13.0566 12.9063 13.2512 12.7917 13.2933L12.75 13.3353H12.7083C12.4635 13.4405 12.0417 13.4615 12.0417 13.4615L10.6667 13.4195V15.5649L11.125 15.9435C11.125 15.9435 12.7083 17.3528 14.2917 19.3089C15.875 21.265 17.3333 23.7838 17.3333 25.5769H6.66667C6.66667 24.0678 6.25 22.485 5.79167 21.0757C5.33333 19.6665 4.79167 18.436 4.58333 17.8786C4.19271 16.8374 4.02083 15.7595 4 14.7656C3.95833 12.6044 4.72396 10.6693 6.04167 9.33894C6.91146 8.46079 8.20833 7.36178 8.91667 6.94111L9.58333 6.5625V5.80529C9.58333 5.30574 9.58333 4.46965 9.875 3.82813C10.0417 3.46529 10.2708 3.1866 10.6667 2.98678ZM6 28.2692H18L21 32.3077H3L6 28.2692Z" fill="#B7B7B7"/>
</svg>
