<svg width="32" height="32" viewBox="0 0 32 32" fill="none" xmlns="http://www.w3.org/2000/svg">
<path fill-rule="evenodd" clip-rule="evenodd" d="M27.5354 0.11047L2.72031 6.31423C-0.577866 7.13879 -0.989582 11.6595 2.10537 13.0663L9.75101 16.5416C11.3185 17.254 13.0154 17.5114 14.6643 17.3358C14.4886 18.9847 14.7459 20.6815 15.4585 22.249L18.9338 29.8946C20.3407 32.9896 24.8613 32.5778 25.6858 29.2798L31.8895 4.46462C32.547 1.835 30.165 -0.546932 27.5354 0.11047ZM11.075 13.6287C12.5742 14.3102 14.2522 14.3622 15.7547 13.8293C16.3227 13.6279 16.8655 13.3428 17.3642 12.9766C17.4336 12.9255 17.5022 12.8729 17.5699 12.8188L21.2316 9.88945C21.8144 9.42321 22.5769 10.1857 22.1105 10.7685L19.1813 14.4302C19.127 14.4978 19.0745 14.5665 19.0235 14.6359C18.6573 15.1346 18.3722 15.6774 18.1708 16.2453C17.6377 17.7479 17.6899 19.4258 18.3713 20.925L21.8466 28.5706C21.9998 28.9075 22.4919 28.8627 22.5817 28.5037L28.7855 3.6886C28.857 3.40232 28.5977 3.14302 28.3115 3.2146L3.49635 9.41836C3.13729 9.50811 3.09248 10.0003 3.4294 10.1534L11.075 13.6287Z" fill="white"/>
</svg>
